<?xml version="1.0" encoding="utf-8" ?><svg xmlns="http://www.w3.org/2000/svg" xmlns:xlink="http://www.w3.org/1999/xlink" width="1024" height="1024" viewBox="0 0 1024 1024"><path fill="#151314" transform="scale(0.5 0.5)" d="M481.636 663.003C500.829 662.421 536.698 661.214 554.616 664.265C562.108 672.389 574.204 679.869 583.228 686.57L644.24 731.619L872.353 901.379C890.356 914.73 1028.23 1014.52 1032.37 1021.49C1031.51 1025.24 1032.04 1025.53 1028.63 1028.04C1017.93 1035.89 1007.06 1043.65 996.369 1051.51L937.972 1094.99L771.223 1220.07L638.782 1319.81C622.123 1332.52 605.813 1345.4 588.571 1357.32C572.125 1368.69 562.373 1383.86 540.569 1383.76C510.555 1383.62 480.604 1384.2 450.705 1383.7C448.765 1381.75 434.93 1382.5 430.871 1382.5C404.705 1382.32 378.545 1381.59 352.41 1380.3C322.639 1378.87 292.475 1378.79 262.862 1376.81C261.196 1376.7 260.847 1374.72 260.108 1373.22L624.98 1104.2L703.493 1046.76C711.722 1040.75 721.646 1034.03 729.648 1027.75C731.41 1026.36 731.761 1023.37 731.771 1021.19C731.414 1020.42 730.956 1019.24 730.226 1018.77C704.381 1002.07 680.148 982.885 655.455 964.503C606.015 927.698 556.411 891.126 506.774 854.591C455.433 816.057 403.752 777.978 351.738 740.359C328.823 723.852 306.082 705.505 282.755 689.369C274.257 683.49 264.858 675.349 255.992 670.927C256.248 670.261 257.811 666.665 258.526 666.617C275.749 665.451 292.91 665.47 310.162 665.473L435.294 664.556C450.191 664.471 465.114 664.823 480.006 664.343C480.549 663.896 481.093 663.45 481.636 663.003Z"/><path fill="#F93705" transform="scale(0.5 0.5)" d="M1073.61 1384.96C1069.34 1386.14 1068.46 1386.36 1064.1 1385.87C1060.94 1383.88 1061.95 1385.22 1060.81 1381.84C1061.6 1376.41 1073.11 1341.57 1075.24 1334.48L1094.21 1271.45C1096.26 1264.51 1103.36 1235.42 1107.68 1232.04C1118.48 1230.22 1143.08 1231.56 1155.71 1231.56L1262.87 1231.51L1664.78 1231.52C1680.51 1231.52 1794.98 1229.76 1802.26 1232.58C1804.61 1236.02 1797.75 1253.86 1796.22 1259.09L1778.34 1318.08L1766.54 1358.15C1763.64 1368.35 1762.26 1375.64 1757.99 1385.47C1755.1 1385.75 1747.72 1384.76 1743.91 1384.66C1734.66 1384.44 1725.52 1384.32 1716.26 1384.29L1602.08 1384.33L1214.48 1384.25L1117.85 1384.18C1108.87 1384.17 1080.22 1383.47 1073.61 1384.96Z"/><path fill="#FDFDFF" fill-opacity="0.019607844" transform="scale(0.5 0.5)" d="M1073.61 1384.96C1080.22 1383.47 1108.87 1384.17 1117.85 1384.18L1214.48 1384.25L1602.08 1384.33L1716.26 1384.29C1725.52 1384.32 1734.66 1384.44 1743.91 1384.66C1747.72 1384.76 1755.1 1385.75 1757.99 1385.47C1757.65 1387.58 1757.58 1387.75 1756.96 1389.77C1752.43 1390.83 1718.65 1388.78 1711.5 1388.35C1689.86 1387.06 1658.5 1391.81 1638.27 1389.68C1639.29 1388.76 1649.42 1389.17 1652.6 1388.85C1638.22 1387.75 1606.31 1388.09 1591.96 1389.05L1596.56 1389.04C1582.26 1390.66 1560.47 1390.1 1545.49 1390.05C1524.09 1389.98 1500.69 1390.43 1479.51 1389.33L1482 1389.06C1448.55 1386.95 1397.86 1388.5 1363.26 1388.5L1254.59 1387.48L1154.16 1387.52C1136.28 1387.52 1118.24 1387.64 1100.38 1387.39C1091.58 1387.26 1082.65 1385.45 1073.61 1384.96Z"/><path fill="#151314" fill-opacity="0.98431373" transform="scale(0.5 0.5)" d="M450.705 1383.7C388.284 1386.55 322.132 1381.3 259.379 1383.69C255.591 1383.83 249.813 1383.23 248.644 1379.16C251.852 1374.84 254.443 1374.77 260.108 1373.22C260.847 1374.72 261.196 1376.7 262.862 1376.81C292.475 1378.79 322.639 1378.87 352.41 1380.3C378.545 1381.59 404.705 1382.32 430.871 1382.5C434.93 1382.5 448.765 1381.75 450.705 1383.7Z"/><path fill="#151314" fill-opacity="0.98039216" transform="scale(0.5 0.5)" d="M255.992 670.927C253.204 668.642 247.883 664.805 249.783 661.01C259.693 659.535 286.817 661.196 297.798 661.724C312.068 662.292 326.345 662.645 340.626 662.781C385.387 663.388 438.305 660.944 481.636 663.003C481.093 663.45 480.549 663.896 480.006 664.343C465.114 664.823 450.191 664.471 435.294 664.556L310.162 665.473C292.91 665.47 275.749 665.451 258.526 666.617C257.811 666.665 256.248 670.261 255.992 670.927Z"/></svg>